<svg width="20" height="20" viewBox="0 0 20 20" fill="none" xmlns="http://www.w3.org/2000/svg">
<g clip-path="url(#clip0_5_385)">
<path d="M3.173 -0.0199018C3.22626 -0.0200825 3.27952 -0.020331 3.33278 -0.0206405C3.4773 -0.0212855 3.62181 -0.0209737 3.76633 -0.0204864C3.9229 -0.02013 4.07948 -0.0206799 4.23605 -0.0211082C4.54205 -0.0218001 4.84805 -0.0216542 5.15405 -0.0212C5.40292 -0.020846 5.65179 -0.0207998 5.90066 -0.0209694C5.93619 -0.0209933 5.97172 -0.0210172 6.00832 -0.0210419C6.08051 -0.0210919 6.15271 -0.0211425 6.2249 -0.0211939C6.90058 -0.0216386 7.57626 -0.0211285 8.25194 -0.0202876C8.83071 -0.0195896 9.40947 -0.0197108 9.98824 -0.0204311C10.6616 -0.0212688 11.335 -0.0215957 12.0084 -0.0211167C12.0803 -0.0210669 12.1523 -0.0210178 12.2242 -0.0209694C12.2772 -0.0209332 12.2772 -0.0209332 12.3314 -0.0208963C12.5797 -0.0207619 12.8281 -0.0209882 13.0764 -0.0213568C13.3794 -0.0217967 13.6823 -0.021673 13.9853 -0.0208442C14.1397 -0.0204358 14.294 -0.0202689 14.4483 -0.0207894C14.59 -0.0212599 14.7317 -0.0209911 14.8734 -0.0201679C14.9481 -0.0199146 15.0228 -0.0204163 15.0974 -0.0209581C15.5607 -0.0168282 16.0097 0.0860533 16.4208 0.305115C16.4468 0.318497 16.4727 0.331878 16.4994 0.345665C16.7082 0.456338 16.8916 0.587447 17.0702 0.742127C17.1167 0.777098 17.1167 0.777098 17.1641 0.812775C17.7233 1.28452 18.0683 2.04281 18.1393 2.7627C18.1444 2.91426 18.1451 3.0654 18.1437 3.21701C18.1438 3.27503 18.1439 3.33306 18.1441 3.39109C18.1445 3.54877 18.1438 3.70643 18.1431 3.86411C18.1424 4.03481 18.1426 4.20551 18.1427 4.37621C18.1428 4.67138 18.1423 4.96653 18.1414 5.26169C18.1402 5.68844 18.1398 6.11518 18.1396 6.54192C18.1392 7.23442 18.1382 7.92691 18.1367 8.61941C18.1353 9.29179 18.1342 9.96417 18.1335 10.6365C18.1335 10.678 18.1334 10.7195 18.1334 10.7623C18.1332 10.9705 18.133 11.1787 18.1328 11.3869C18.1312 13.1121 18.1284 14.8373 18.1249 16.5624C18.1762 16.5616 18.2274 16.5608 18.2802 16.56C18.4704 16.5571 18.6605 16.5553 18.8507 16.5539C18.933 16.5531 19.0153 16.552 19.0975 16.5507C19.2158 16.5488 19.3341 16.5479 19.4524 16.5472C19.5076 16.546 19.5076 16.546 19.5639 16.5447C19.818 16.5446 19.818 16.5446 19.9449 16.6328C20.0257 16.759 20.0232 16.8788 20.0194 17.0239C20.0189 17.0533 20.0184 17.0827 20.0178 17.113C19.9939 17.7768 19.7063 18.4546 19.2577 18.9453C19.2265 18.9801 19.1952 19.0149 19.163 19.0508C18.796 19.4395 18.3606 19.7142 17.8515 19.8828C17.8098 19.8973 17.8098 19.8973 17.7672 19.912C17.3519 20.037 16.929 20.0167 16.4997 20.0157C16.4106 20.0159 16.3214 20.0162 16.2322 20.0165C15.9911 20.0172 15.7499 20.0172 15.5087 20.017C15.3069 20.0168 15.1051 20.0171 14.9033 20.0173C14.3998 20.0179 13.8962 20.0178 13.3927 20.0173C12.9566 20.0169 12.5206 20.0174 12.0845 20.0183C11.6354 20.0193 11.1864 20.0196 10.7373 20.0194C10.4857 20.0193 10.2341 20.0194 9.98253 20.02C9.74581 20.0206 9.5091 20.0205 9.27238 20.0198C9.18588 20.0196 9.09939 20.0197 9.0129 20.0201C8.41734 20.0228 7.87648 19.9859 7.33878 19.7021C7.3131 19.6888 7.28741 19.6755 7.26094 19.6618C6.72149 19.3724 6.15643 18.9113 5.93742 18.3203C5.90671 18.1651 5.91258 18.0491 5.99601 17.9101C6.13253 17.8282 6.2535 17.8178 6.40617 17.8515C6.55851 17.9593 6.63357 18.0965 6.73087 18.2543C7.04506 18.7562 7.54623 19.116 8.12492 19.2578C8.81695 19.3979 9.48684 19.3194 10.0909 18.9422C10.6704 18.5257 11.0162 17.9986 11.1718 17.3046C11.1967 17.1503 11.2122 16.996 11.2244 16.8401C11.2551 16.6939 11.2892 16.6534 11.4062 16.5624C11.5206 16.5432 11.5206 16.5432 11.6563 16.5436C11.7078 16.5434 11.7593 16.5432 11.8123 16.543C11.8693 16.5436 11.9263 16.5441 11.9833 16.5447C12.0433 16.5447 12.1034 16.5447 12.1635 16.5446C12.3265 16.5446 12.4895 16.5455 12.6525 16.5466C12.8229 16.5476 12.9933 16.5477 13.1636 16.5479C13.4862 16.5483 13.8089 16.5496 14.1315 16.5512C14.4988 16.5529 14.866 16.5538 15.2333 16.5546C15.9889 16.5562 16.7444 16.559 17.4999 16.5624C17.4967 14.8606 17.4931 13.1587 17.489 11.4568C17.4885 11.2557 17.488 11.0546 17.4875 10.8535C17.4874 10.7935 17.4874 10.7935 17.4872 10.7322C17.4857 10.0847 17.4844 9.43716 17.4832 8.78964C17.482 8.12482 17.4805 7.46001 17.4787 6.7952C17.4776 6.38524 17.4768 5.97529 17.4762 5.56533C17.4758 5.2839 17.4751 5.00247 17.4742 4.72104C17.4736 4.55886 17.4732 4.39669 17.4732 4.23452C17.4731 4.08566 17.4727 3.9368 17.472 3.78794C17.4717 3.70939 17.4718 3.63083 17.472 3.55227C17.467 2.7332 17.3193 1.99703 16.74 1.38269C15.964 0.653074 15.0661 0.651944 14.0617 0.655133C13.9638 0.655155 13.866 0.655142 13.7681 0.655098C13.5586 0.65508 13.3491 0.6553 13.1395 0.655742C12.8366 0.65638 12.5336 0.65658 12.2307 0.656678C11.739 0.656849 11.2474 0.657367 10.7557 0.658108C10.2785 0.658827 9.80123 0.659379 9.324 0.65971C9.27977 0.659741 9.27977 0.659741 9.23466 0.659773C9.08673 0.659874 8.93881 0.659973 8.79088 0.66007C7.56629 0.660878 6.34169 0.662259 5.1171 0.664002C5.15172 0.697686 5.18634 0.731369 5.22201 0.766074C5.26802 0.811333 5.31403 0.856605 5.36002 0.901886C5.39414 0.934995 5.39414 0.934995 5.42895 0.968772C5.98438 1.51775 6.25996 2.28403 6.26666 3.05547C6.26656 3.11034 6.26645 3.16521 6.26632 3.22008C6.26661 3.27916 6.26694 3.33824 6.26732 3.39732C6.26818 3.5563 6.2683 3.71526 6.26823 3.87424C6.26822 4.00725 6.26856 4.14026 6.26888 4.27328C6.26963 4.58687 6.26975 4.90046 6.26948 5.21406C6.26922 5.53741 6.27012 5.86074 6.27157 6.18409C6.27276 6.4623 6.27321 6.7405 6.27306 7.01871C6.27298 7.18464 6.27319 7.35056 6.27415 7.51649C6.27501 7.6722 6.27495 7.82788 6.27415 7.98358C6.27402 8.04071 6.27422 8.09785 6.27477 8.15497C6.27548 8.23289 6.27487 8.31082 6.27419 8.38874C6.27422 8.43235 6.27425 8.47596 6.27427 8.52089C6.24991 8.63275 6.24991 8.63275 6.15807 8.72491C6.03066 8.80383 5.96766 8.81357 5.82023 8.789C5.71663 8.74057 5.71663 8.74057 5.62492 8.63275C5.59524 8.46826 5.6003 8.3048 5.60274 8.1381C5.6027 8.06206 5.6027 8.06206 5.60266 7.98448C5.6026 7.84558 5.60375 7.70671 5.60511 7.56782C5.60633 7.42263 5.60645 7.27744 5.60668 7.13225C5.60729 6.85736 5.60889 6.58248 5.61085 6.3076C5.61303 5.99463 5.61411 5.68166 5.61509 5.36869C5.61713 4.72493 5.62056 4.08119 5.62492 3.43744C5.59687 3.43758 5.56883 3.43773 5.53994 3.43788C4.85793 3.44133 4.17592 3.44391 3.4939 3.44554C3.16408 3.44634 2.83427 3.44744 2.50445 3.44923C2.21702 3.45078 1.92958 3.45179 1.64214 3.45214C1.48991 3.45234 1.3377 3.45282 1.18548 3.45396C1.04222 3.45502 0.89898 3.45535 0.755721 3.45511C0.678031 3.45518 0.600344 3.45602 0.522659 3.45688C0.47643 3.45667 0.4302 3.45645 0.382569 3.45623C0.342385 3.45637 0.302201 3.45652 0.260799 3.45667C0.127302 3.43214 0.0813397 3.38809 -8.53483e-05 3.28119C-0.016145 3.17291 -0.0224212 3.08393 -0.0196166 2.97601C-0.0190879 2.94658 -0.0185592 2.91716 -0.0180144 2.88684C0.00646832 2.20865 0.301131 1.56384 0.742102 1.05463C0.765416 1.02366 0.78873 0.992691 0.81275 0.960785C1.39015 0.276345 2.30248 -0.0262165 3.173 -0.0199018ZM1.31583 1.39642C0.980765 1.75553 0.663977 2.30419 0.663977 2.81244C2.2882 2.81244 3.91241 2.81244 5.58585 2.81244C5.48802 2.27438 5.34561 1.90571 4.99992 1.48431C4.97957 1.45949 4.95923 1.43467 4.93827 1.40909C4.5211 0.950838 3.9218 0.699155 3.31534 0.627381C2.54484 0.59302 1.87358 0.88217 1.31583 1.39642ZM11.8749 17.1874C11.8234 17.4066 11.7718 17.6257 11.7187 17.8515C11.5545 18.2964 11.3544 18.657 11.029 19.0031C10.9554 19.0822 10.8846 19.1623 10.8145 19.2444C10.7936 19.2689 10.7727 19.2934 10.7511 19.3186C10.7352 19.3372 10.7194 19.3558 10.703 19.3749C11.4976 19.3768 12.2922 19.3781 13.0868 19.379C13.4558 19.3794 13.8248 19.3799 14.1938 19.3808C14.5157 19.3816 14.8375 19.3821 15.1593 19.3823C15.3296 19.3824 15.4998 19.3826 15.67 19.3832C15.8306 19.3837 15.9913 19.3839 16.1519 19.3838C16.2105 19.3838 16.269 19.3839 16.3275 19.3843C17.2179 19.3886 17.9935 19.2414 18.6645 18.6205C19.0442 18.2097 19.2571 17.7386 19.3359 17.1874C16.8737 17.1874 14.4116 17.1874 11.8749 17.1874Z" fill="black"/>
<path d="M8.67192 10.2734C9.40955 10.9234 9.94403 11.8993 10.0076 12.891C10.0366 14.0352 9.8627 15.0438 9.1016 15.9375C9.05946 15.9884 9.05946 15.9884 9.01646 16.0404C8.32498 16.845 7.34283 17.33 6.2891 17.4219C5.18883 17.5001 4.13423 17.176 3.28617 16.4673C2.53056 15.811 2.00659 14.9063 1.87504 13.9063C1.79273 12.6814 2.02937 11.5989 2.8397 10.648C4.36027 8.93934 6.93725 8.80147 8.67192 10.2734ZM3.71098 10.7422C3.67326 10.7724 3.63555 10.8025 3.59669 10.8336C3.02242 11.3112 2.63059 12.1197 2.5391 12.8516C2.48339 13.8633 2.64631 14.7758 3.33989 15.5566C3.39824 15.6187 3.45682 15.6806 3.51567 15.7422C3.53676 15.7662 3.55786 15.7902 3.5796 15.815C4.11601 16.4027 4.98963 16.7222 5.76649 16.7658C6.7207 16.7775 7.5965 16.4851 8.29106 15.8106C8.32651 15.7751 8.36196 15.7397 8.39848 15.7031C8.42748 15.6741 8.45649 15.6451 8.48637 15.6152C9.15584 14.9039 9.36339 14.0444 9.34819 13.0946C9.32212 12.3755 9.02468 11.737 8.59379 11.1719C8.56139 11.1286 8.56139 11.1286 8.52833 11.0844C8.00685 10.4387 7.13738 10.0268 6.32817 9.92188C5.37366 9.84457 4.42962 10.0862 3.71098 10.7422Z" fill="black"/>
<path d="M6.0548 10.5078C6.15902 10.5621 6.15902 10.5621 6.25011 10.664C6.27451 10.7981 6.2685 10.9287 6.26232 11.0644C6.26144 11.101 6.26056 11.1375 6.25965 11.1752C6.25735 11.2653 6.25414 11.3553 6.25011 11.4453C6.28892 11.4443 6.28892 11.4443 6.32852 11.4432C6.68213 11.4378 6.9368 11.4993 7.20226 11.7456C7.44041 12.0069 7.51755 12.2474 7.51705 12.5984C7.4969 12.7136 7.46408 12.7679 7.38292 12.8515C7.23912 12.8915 7.14561 12.9013 7.00206 12.8589C6.88475 12.7448 6.86638 12.6342 6.82613 12.4785C6.78859 12.3552 6.73288 12.2767 6.64074 12.1875C6.43778 12.1198 6.22055 12.1381 6.00807 12.1369C5.95147 12.1364 5.89487 12.1356 5.83828 12.1345C5.75632 12.1328 5.67442 12.1322 5.59246 12.1318C5.54349 12.1312 5.49453 12.1306 5.44408 12.13C5.2898 12.1516 5.22671 12.1961 5.1173 12.3047C5.04947 12.4403 5.05472 12.5864 5.07824 12.7343C5.16345 12.842 5.22948 12.9076 5.35167 12.9687C5.44357 12.9729 5.53557 12.9748 5.62755 12.9756C5.68426 12.9765 5.74098 12.9774 5.79769 12.9784C5.88673 12.9798 5.97576 12.9809 6.06481 12.9815C6.47625 12.9844 6.8091 13.0173 7.16076 13.2495C7.41614 13.5167 7.51944 13.812 7.53917 14.1797C7.52597 14.4709 7.42146 14.7056 7.22667 14.9218C6.9852 15.1236 6.7551 15.2384 6.43795 15.2359C6.38518 15.2355 6.38518 15.2355 6.33135 15.2352C6.30454 15.2349 6.27773 15.2346 6.25011 15.2343C6.25113 15.2572 6.25216 15.28 6.25321 15.3036C6.25728 15.4074 6.25981 15.5113 6.26232 15.6152C6.26477 15.6691 6.26477 15.6691 6.26728 15.7242C6.27211 15.991 6.27211 15.991 6.15902 16.1175C6.03123 16.1841 5.96266 16.1955 5.82042 16.1718C5.71621 16.1175 5.71621 16.1175 5.62511 16.0156C5.60071 15.8815 5.60672 15.7509 5.6129 15.6152C5.61378 15.5786 5.61467 15.5421 5.61557 15.5044C5.61787 15.4143 5.62108 15.3244 5.62511 15.2343C5.59901 15.2351 5.57291 15.2358 5.54601 15.2365C5.51139 15.237 5.47676 15.2376 5.44109 15.2382C5.38985 15.2392 5.38985 15.2392 5.33758 15.2403C5.06419 15.2245 4.83522 15.0675 4.64061 14.8842C4.42019 14.6345 4.34085 14.3777 4.35619 14.0463C4.37511 13.9453 4.37511 13.9453 4.45812 13.8379C4.58965 13.7807 4.66301 13.7654 4.8048 13.789C4.92815 13.8521 4.986 13.9056 5.03276 14.0371C5.05166 14.106 5.07008 14.1751 5.088 14.2442C5.12486 14.3596 5.17675 14.4203 5.27355 14.4922C5.44469 14.5777 5.67407 14.5417 5.86421 14.5427C5.9491 14.5434 6.03393 14.5451 6.11881 14.5469C6.173 14.5473 6.2272 14.5476 6.28139 14.5479C6.3306 14.5484 6.37981 14.549 6.43052 14.5496C6.58522 14.5281 6.64828 14.4839 6.75792 14.375C6.8255 14.2398 6.81587 14.0931 6.79699 13.9453C6.71441 13.8086 6.67521 13.7615 6.52355 13.7109C6.43369 13.7068 6.34372 13.7048 6.25377 13.704C6.19915 13.7031 6.14452 13.7022 6.08989 13.7012C6.00445 13.6999 5.91903 13.6987 5.83358 13.6982C5.40247 13.695 5.00577 13.6736 4.67052 13.3716C4.43218 13.1073 4.33213 12.8156 4.33605 12.4609C4.36061 12.151 4.4984 11.8978 4.72515 11.6864C5.0154 11.4573 5.26348 11.4337 5.62511 11.4453C5.62409 11.4224 5.62307 11.3996 5.62201 11.376C5.61794 11.2722 5.61541 11.1683 5.6129 11.0644C5.61127 11.0285 5.60963 10.9925 5.60794 10.9555C5.60311 10.6886 5.60311 10.6886 5.71621 10.5621C5.84399 10.4955 5.91257 10.4841 6.0548 10.5078Z" fill="black"/>
<path d="M8.90122 3.41768C8.92773 3.41743 8.95424 3.41719 8.98155 3.41694C9.07011 3.41631 9.15863 3.41681 9.24719 3.4173C9.31079 3.41709 9.37439 3.41681 9.43798 3.41647C9.61054 3.41576 9.78307 3.41603 9.95563 3.41653C10.1362 3.41692 10.3168 3.41656 10.4974 3.41631C10.8007 3.41603 11.104 3.4164 11.4073 3.41715C11.7579 3.418 12.1085 3.41772 12.4591 3.41686C12.7602 3.41615 13.0612 3.41605 13.3623 3.41646C13.5421 3.4167 13.7219 3.41674 13.9017 3.41622C14.0707 3.41577 14.2397 3.41608 14.4088 3.41698C14.4708 3.41719 14.5328 3.41713 14.5949 3.41679C14.6796 3.41636 14.7642 3.4169 14.8489 3.41768C14.8963 3.41773 14.9437 3.41779 14.9925 3.41785C15.1415 3.44134 15.2067 3.48819 15.3126 3.59377C15.3385 3.68044 15.3385 3.68044 15.337 3.76955C15.3375 3.79895 15.338 3.82836 15.3385 3.85866C15.2996 3.98873 15.2294 4.02804 15.1172 4.10158C14.9925 4.12124 14.9925 4.12124 14.8489 4.12142C14.8224 4.12166 14.7959 4.12191 14.7686 4.12216C14.68 4.12278 14.5915 4.12229 14.5029 4.1218C14.4393 4.12201 14.3757 4.12229 14.3121 4.12263C14.1396 4.12334 13.967 4.12306 13.7945 4.12257C13.6139 4.12217 13.4333 4.12254 13.2527 4.12278C12.9494 4.12307 12.6461 4.12269 12.3428 4.12195C11.9922 4.1211 11.6416 4.12137 11.291 4.12223C10.9899 4.12294 10.6889 4.12304 10.3878 4.12263C10.208 4.12239 10.0282 4.12236 9.84843 4.12287C9.6794 4.12333 9.51038 4.12301 9.34134 4.12211C9.27931 4.1219 9.21728 4.12196 9.15526 4.12231C9.07056 4.12273 8.98592 4.1222 8.90122 4.12142C8.85383 4.12136 8.80645 4.1213 8.75763 4.12124C8.60863 4.09776 8.5434 4.05091 8.43756 3.94533C8.41162 3.85866 8.41162 3.85866 8.41315 3.76955C8.41264 3.74014 8.41214 3.71073 8.41162 3.68044C8.48141 3.44727 8.68628 3.41794 8.90122 3.41768Z" fill="black"/>
<path d="M8.86066 7.59736C8.90089 7.597 8.90089 7.597 8.94193 7.59662C9.03179 7.596 9.1216 7.59649 9.21146 7.59699C9.27588 7.59677 9.3403 7.5965 9.40473 7.59616C9.5797 7.59544 9.75466 7.59572 9.92964 7.59622C10.1127 7.59661 10.2957 7.59624 10.4787 7.596C10.7861 7.59571 11.0934 7.59609 11.4008 7.59683C11.7563 7.59768 12.1117 7.59741 12.4672 7.59655C12.7723 7.59584 13.0773 7.59574 13.3824 7.59615C13.5647 7.59639 13.7469 7.59642 13.9292 7.59591C14.1005 7.59546 14.2719 7.59577 14.4432 7.59667C14.5061 7.59688 14.5691 7.59682 14.632 7.59648C14.7178 7.59605 14.8036 7.59658 14.8894 7.59736C14.9615 7.59745 14.9615 7.59745 15.035 7.59754C15.179 7.62088 15.2249 7.65914 15.3125 7.77345C15.3488 7.9197 15.3322 8.04941 15.2613 8.18117C15.1308 8.30198 14.9911 8.28633 14.8222 8.28675C14.796 8.28687 14.7699 8.28698 14.743 8.2871C14.6553 8.28744 14.5676 8.2875 14.4799 8.28756C14.4171 8.28774 14.3542 8.28794 14.2914 8.28815C14.1207 8.28866 13.9499 8.28891 13.7791 8.28909C13.6724 8.2892 13.5658 8.28936 13.4591 8.28954C13.1255 8.29007 12.7918 8.29045 12.4582 8.2906C12.0728 8.29077 11.6875 8.29146 11.3022 8.29259C11.0045 8.29343 10.7068 8.29383 10.409 8.29388C10.2311 8.29392 10.0533 8.29415 9.87539 8.29485C9.70808 8.29549 9.54079 8.29558 9.37349 8.29524C9.31209 8.29521 9.25069 8.29538 9.1893 8.29576C9.10546 8.29626 9.02165 8.29603 8.93781 8.29562C8.8909 8.29568 8.84399 8.29574 8.79566 8.2958C8.64795 8.27845 8.54345 8.23093 8.43753 8.12502C8.42822 8.04979 8.42822 8.04979 8.42532 7.95656C8.42386 7.9261 8.4224 7.89563 8.4209 7.86424C8.46525 7.62215 8.6448 7.59763 8.86066 7.59736Z" fill="black"/>
<path d="M8.9638 5.50233C8.98957 5.50222 9.01535 5.5021 9.0419 5.50198C9.12845 5.50164 9.21498 5.50158 9.30153 5.50153C9.36351 5.50134 9.42549 5.50115 9.48747 5.50094C9.65599 5.50043 9.82451 5.50017 9.99304 5.5C10.0983 5.49989 10.2036 5.49973 10.3089 5.49955C10.6382 5.49902 10.9676 5.49864 11.297 5.49849C11.6772 5.49831 12.0575 5.49763 12.4377 5.4965C12.7316 5.49565 13.0255 5.49526 13.3194 5.49521C13.4949 5.49516 13.6705 5.49493 13.846 5.49424C14.0112 5.49359 14.1763 5.49351 14.3415 5.49385C14.402 5.49388 14.4626 5.49371 14.5232 5.49332C14.606 5.49283 14.6887 5.49306 14.7715 5.49346C14.8178 5.49341 14.8641 5.49335 14.9118 5.49329C15.0557 5.50971 15.1503 5.55004 15.2735 5.62501C15.3347 5.74725 15.3398 5.88324 15.3126 6.01563C15.2252 6.13019 15.179 6.1682 15.0351 6.19154C14.987 6.1916 14.939 6.19166 14.8895 6.19172C14.8627 6.19197 14.8358 6.19221 14.8082 6.19246C14.7183 6.19309 14.6285 6.19259 14.5387 6.1921C14.4743 6.19231 14.4098 6.19259 14.3454 6.19293C14.1704 6.19364 13.9955 6.19337 13.8205 6.19287C13.6375 6.19248 13.4545 6.19284 13.2714 6.19309C12.9641 6.19337 12.6567 6.193 12.3493 6.19225C11.9939 6.1914 11.6384 6.19168 11.2829 6.19254C10.9779 6.19325 10.6728 6.19335 10.3677 6.19294C10.1855 6.19269 10.0032 6.19266 9.82094 6.19318C9.6496 6.19363 9.47827 6.19332 9.30693 6.19241C9.244 6.19221 9.18108 6.19227 9.11815 6.19261C9.03232 6.19304 8.94655 6.1925 8.86073 6.19172C8.78866 6.19164 8.78866 6.19164 8.71513 6.19154C8.57114 6.1682 8.52527 6.12989 8.4376 6.01563C8.40916 5.90857 8.41516 5.81133 8.4376 5.70313C8.5829 5.50774 8.73265 5.50291 8.9638 5.50233Z" fill="black"/>
<path d="M9.80313 9.66768C9.84979 9.66723 9.89644 9.66679 9.94452 9.66634C9.99537 9.66666 10.0462 9.66697 10.0986 9.6673C10.153 9.66709 10.2074 9.66681 10.2617 9.66647C10.4091 9.66576 10.5564 9.66603 10.7038 9.66653C10.8581 9.66692 11.0125 9.66656 11.1668 9.66631C11.426 9.66603 11.6851 9.6664 11.9443 9.66715C12.2437 9.668 12.5432 9.66772 12.8427 9.66686C13.1 9.66615 13.3573 9.66605 13.6145 9.66646C13.7681 9.6667 13.9217 9.66674 14.0753 9.66622C14.2197 9.66577 14.3641 9.66608 14.5085 9.66699C14.5867 9.66729 14.6649 9.66683 14.7431 9.66634C14.8131 9.667 14.8131 9.667 14.8845 9.66768C14.9452 9.66776 14.9452 9.66776 15.0071 9.66785C15.1461 9.69267 15.2122 9.74633 15.3126 9.84377C15.3385 9.93044 15.3385 9.93044 15.337 10.0195C15.3375 10.049 15.338 10.0784 15.3385 10.1087C15.2999 10.2377 15.2276 10.2778 15.1172 10.3516C15.0071 10.3712 15.0071 10.3712 14.8845 10.3714C14.8378 10.3719 14.7912 10.3723 14.7431 10.3728C14.6668 10.3723 14.6668 10.3723 14.589 10.3718C14.5346 10.372 14.4803 10.3723 14.4259 10.3726C14.2785 10.3733 14.1312 10.3731 13.9838 10.3726C13.8295 10.3722 13.6751 10.3725 13.5208 10.3728C13.2617 10.3731 13.0025 10.3727 12.7434 10.3719C12.4439 10.3711 12.1444 10.3714 11.8449 10.3722C11.5876 10.3729 11.3304 10.373 11.0731 10.3726C10.9195 10.3724 10.7659 10.3724 10.6123 10.3729C10.4679 10.3733 10.3235 10.373 10.1791 10.3721C10.1009 10.3718 10.0227 10.3723 9.94452 10.3728C9.87453 10.3721 9.87453 10.3721 9.80313 10.3714C9.74242 10.3713 9.74242 10.3713 9.68049 10.3712C9.54151 10.3464 9.47537 10.2928 9.37506 10.1953C9.34912 10.1087 9.34912 10.1087 9.35065 10.0195C9.35014 9.99014 9.34964 9.96073 9.34912 9.93044C9.41349 9.71538 9.60023 9.66797 9.80313 9.66768Z" fill="black"/>
<path d="M11.1982 13.8469C11.2406 13.8466 11.283 13.8464 11.3268 13.8461C11.4672 13.8454 11.6076 13.8459 11.7481 13.8464C11.8456 13.8463 11.9431 13.8461 12.0406 13.8459C12.2449 13.8457 12.4493 13.846 12.6537 13.8468C12.8899 13.8476 13.126 13.8473 13.3622 13.8465C13.5896 13.8457 13.8169 13.8458 14.0442 13.8462C14.1409 13.8463 14.2376 13.8462 14.3343 13.8458C14.4694 13.8454 14.6044 13.846 14.7394 13.8469C14.7795 13.8466 14.8196 13.8463 14.8609 13.846C15.1315 13.8492 15.1315 13.8492 15.2592 13.9416C15.3448 14.0729 15.3386 14.1848 15.3125 14.3359C15.2445 14.4623 15.216 14.4853 15.0782 14.5312C15.0206 14.5349 14.9629 14.5365 14.9052 14.5367C14.8522 14.537 14.8522 14.537 14.798 14.5374C14.7593 14.5374 14.7206 14.5374 14.6807 14.5375C14.6194 14.5378 14.6194 14.5378 14.5569 14.5381C14.4215 14.5386 14.2861 14.5389 14.1507 14.5391C14.0568 14.5394 13.9628 14.5396 13.8689 14.5398C13.6718 14.5402 13.4747 14.5404 13.2776 14.5406C13.0249 14.5408 12.7722 14.5417 12.5195 14.5428C12.3255 14.5436 12.1314 14.5438 11.9373 14.5438C11.8441 14.544 11.7509 14.5443 11.6578 14.5448C11.5275 14.5454 11.3973 14.5454 11.267 14.5451C11.2284 14.5455 11.1899 14.5458 11.1501 14.5462C10.9365 14.5449 10.784 14.5339 10.625 14.3749C10.6157 14.2997 10.6157 14.2997 10.6128 14.2065C10.6114 14.176 10.6099 14.1456 10.6084 14.1142C10.6648 13.8062 10.9492 13.8449 11.1982 13.8469Z" fill="black"/>
<path d="M11.068 11.7523C11.12 11.752 11.12 11.752 11.1731 11.7517C11.211 11.7516 11.2489 11.7516 11.288 11.7515C11.348 11.7512 11.348 11.7512 11.4093 11.7509C11.542 11.7504 11.6746 11.7501 11.8073 11.7499C11.8994 11.7497 11.9915 11.7494 12.0836 11.7492C12.2769 11.7488 12.4701 11.7486 12.6634 11.7484C12.911 11.7482 13.1586 11.7473 13.4062 11.7462C13.5965 11.7454 13.7868 11.7452 13.9771 11.7452C14.0684 11.7451 14.1596 11.7447 14.2509 11.7442C14.3787 11.7436 14.5064 11.7436 14.6341 11.7439C14.6718 11.7435 14.7095 11.7432 14.7483 11.7428C14.9522 11.7441 15.0979 11.7586 15.2733 11.875C15.3344 11.9972 15.3396 12.1332 15.3124 12.2656C15.2593 12.3475 15.2593 12.3475 15.1561 12.4219C15.0175 12.4459 14.8797 12.4432 14.7393 12.4421C14.6968 12.4424 14.6544 12.4426 14.6107 12.4429C14.4702 12.4436 14.3298 12.4432 14.1893 12.4426C14.0919 12.4427 13.9944 12.4429 13.8969 12.4431C13.6925 12.4433 13.4881 12.443 13.2837 12.4422C13.0475 12.4414 12.8114 12.4417 12.5752 12.4425C12.3479 12.4433 12.1205 12.4432 11.8932 12.4428C11.7965 12.4427 11.6998 12.4428 11.6031 12.4432C11.4681 12.4436 11.3331 12.443 11.198 12.4421C11.1379 12.4426 11.1379 12.4426 11.0765 12.4431C10.8059 12.4398 10.8059 12.4398 10.6783 12.3474C10.5927 12.2164 10.5936 12.104 10.6249 11.9531C10.7475 11.7883 10.8691 11.7531 11.068 11.7523Z" fill="black"/>
</g>
<defs>
<clipPath id="clip0_5_385">
<rect width="20" height="20" fill="white"/>
</clipPath>
</defs>
</svg>
