<svg width="20" height="20" viewBox="0 0 20 20" fill="none" xmlns="http://www.w3.org/2000/svg">
<g clip-path="url(#clip0_3_298)">
<path d="M8.95474 -0.00747728C9.00508 -0.00810473 9.05543 -0.00873219 9.1073 -0.00937866C9.16242 -0.00982757 9.21753 -0.0102419 9.27264 -0.0106244C9.30049 -0.0108324 9.32834 -0.0110403 9.35703 -0.0112546C9.50464 -0.0122983 9.65224 -0.013055 9.79984 -0.0136189C9.92143 -0.0141384 10.043 -0.0152234 10.1646 -0.0168233C10.3119 -0.0187613 10.4591 -0.0197188 10.6064 -0.019995C10.6623 -0.0202555 10.7181 -0.0208456 10.7739 -0.0217876C11.1158 -0.0272248 11.3958 -0.00994068 11.6797 0.195369C11.9056 0.41922 12.0236 0.693972 12.0356 1.01228C12.0351 1.04981 12.0346 1.08734 12.034 1.126C12.0336 1.16405 12.0332 1.20211 12.0328 1.24131C12.0323 1.26998 12.0318 1.29865 12.0313 1.32818C12.0656 1.32757 12.0998 1.32695 12.1351 1.32632C12.2631 1.32432 12.3911 1.32285 12.5191 1.32174C12.5743 1.32116 12.6296 1.32036 12.6848 1.31934C12.7645 1.31791 12.8442 1.31725 12.9239 1.31674C12.9718 1.31612 13.0197 1.31551 13.069 1.31488C13.2418 1.33202 13.3729 1.38641 13.5018 1.50396C13.6522 1.69721 13.6767 1.81646 13.6743 2.05816C13.674 2.10424 13.6736 2.15031 13.6733 2.19778C13.6726 2.25073 13.6726 2.25073 13.6719 2.30474C13.6932 2.30448 13.7145 2.30422 13.7364 2.30396C13.9608 2.30134 14.1852 2.29958 14.4096 2.29831C14.493 2.29772 14.5764 2.29693 14.6598 2.2959C15.9877 2.28004 15.9877 2.28004 16.5345 2.77624C17.0048 3.2659 17.0433 3.85759 17.0412 4.505C17.0413 4.56482 17.0414 4.62463 17.0416 4.68445C17.0419 4.84781 17.0417 5.01116 17.0415 5.17452C17.0413 5.35109 17.0416 5.52766 17.0418 5.70423C17.0422 6.04974 17.0421 6.39526 17.0419 6.74077C17.0417 7.02168 17.0416 7.30258 17.0417 7.58349C17.0417 7.62352 17.0418 7.66355 17.0418 7.70479C17.0418 7.78611 17.0418 7.86743 17.0418 7.94876C17.0421 8.71081 17.0418 9.47287 17.0414 10.2349C17.041 10.8883 17.0411 11.5416 17.0415 12.195C17.0419 12.9543 17.042 13.7137 17.0418 14.473C17.0418 14.554 17.0418 14.6351 17.0417 14.7161C17.0417 14.7559 17.0417 14.7958 17.0417 14.8369C17.0416 15.1173 17.0417 15.3977 17.0419 15.6782C17.0421 16.0201 17.0421 16.3621 17.0417 16.704C17.0415 16.8784 17.0414 17.0527 17.0416 17.2271C17.0419 17.3869 17.0417 17.5467 17.0413 17.7065C17.0412 17.7641 17.0413 17.8217 17.0415 17.8793C17.0434 18.4935 16.9908 19.0808 16.55 19.5501C16.1631 19.9001 15.7348 20.0241 15.2213 20.0199C15.1747 20.0201 15.1281 20.0204 15.08 20.0206C14.9518 20.0211 14.8235 20.021 14.6953 20.0205C14.5565 20.0201 14.4177 20.0207 14.2789 20.0211C14.0075 20.0218 13.7361 20.0216 13.4647 20.0212C13.244 20.0208 13.0233 20.0208 12.8027 20.021C12.7555 20.021 12.7555 20.021 12.7073 20.021C12.6433 20.0211 12.5794 20.0211 12.5154 20.0212C11.9166 20.0216 11.3177 20.0211 10.7188 20.0203C10.2055 20.0196 9.69226 20.0197 9.17899 20.0204C8.58217 20.0213 7.98534 20.0216 7.38852 20.0211C7.32481 20.0211 7.2611 20.021 7.19739 20.021C7.16605 20.0209 7.13471 20.0209 7.10242 20.0209C6.88214 20.0208 6.66187 20.021 6.44159 20.0214C6.17295 20.0218 5.90431 20.0217 5.63567 20.0208C5.49874 20.0204 5.36183 20.0203 5.22491 20.0208C5.07616 20.0212 4.92745 20.0207 4.77871 20.0199C4.73587 20.0202 4.69304 20.0206 4.6489 20.021C4.26929 20.0171 3.93703 19.921 3.63284 19.6876C3.59417 19.6594 3.5555 19.6312 3.51566 19.6021C3.19837 19.3297 3.01965 18.9176 2.97678 18.5091C2.95993 18.2761 2.96329 18.0425 2.96356 17.8089C2.96348 17.7492 2.96339 17.6894 2.96329 17.6296C2.96305 17.466 2.96306 17.3024 2.9631 17.1388C2.96311 16.9621 2.96289 16.7854 2.96271 16.6087C2.96238 16.2627 2.96228 15.9168 2.96225 15.5709C2.96224 15.2897 2.96216 15.0084 2.96203 14.7272C2.96169 13.9295 2.96151 13.1318 2.96154 12.3341C2.96154 12.2911 2.96154 12.2481 2.96154 12.2038C2.96154 12.1608 2.96155 12.1178 2.96155 12.0735C2.96156 11.376 2.96119 10.6785 2.96064 9.98098C2.96008 9.26443 2.95981 8.54787 2.95984 7.83131C2.95985 7.42917 2.95975 7.02703 2.95933 6.62489C2.95897 6.28255 2.95889 5.94021 2.95915 5.59787C2.95928 5.42329 2.95928 5.24871 2.95894 5.07413C2.95863 4.91414 2.95869 4.75415 2.95903 4.59416C2.95909 4.53646 2.95902 4.47876 2.9588 4.42107C2.95661 3.79998 3.02801 3.23534 3.47568 2.76617C4.05438 2.24779 4.7332 2.28846 5.4639 2.29742C5.54797 2.29801 5.63205 2.29854 5.71613 2.29902C5.92014 2.3003 6.12415 2.30225 6.32816 2.30474C6.32765 2.26967 6.32714 2.2346 6.32661 2.19847C6.32621 2.15257 6.32582 2.10667 6.32541 2.05938C6.3249 2.01384 6.32439 1.96829 6.32386 1.92137C6.33007 1.74152 6.37408 1.63363 6.50119 1.50686C6.68879 1.3412 6.82108 1.32334 7.0647 1.32437C7.10347 1.32445 7.10347 1.32445 7.14302 1.32453C7.2254 1.32475 7.30778 1.32524 7.39017 1.32574C7.44609 1.32594 7.50201 1.32611 7.55794 1.32627C7.69489 1.3267 7.83183 1.32738 7.96878 1.32818C7.96821 1.29957 7.96765 1.27096 7.96706 1.24148C7.96662 1.20348 7.96618 1.16547 7.96573 1.12631C7.96516 1.08884 7.9646 1.05136 7.96401 1.01275C7.97532 0.741884 8.06449 0.479286 8.24222 0.273494C8.47754 0.0919824 8.65407 -0.00407251 8.95474 -0.00747728ZM8.71097 0.859432C8.67284 0.973806 8.66603 1.05259 8.66367 1.17193C8.662 1.22873 8.662 1.22873 8.66031 1.28668C8.65827 1.36642 8.65655 1.44618 8.65512 1.52594C8.65331 1.58273 8.65331 1.58273 8.65146 1.64068C8.65068 1.67533 8.64991 1.70997 8.64911 1.74566C8.62964 1.85378 8.60248 1.88771 8.51566 1.95318C8.37232 2.00096 8.23741 2.00128 8.08795 2.0046C8.06119 2.00533 8.03443 2.00606 8.00687 2.00681C7.9071 2.00948 7.80732 2.01183 7.70755 2.01422C7.48438 2.01986 7.26121 2.0255 7.03128 2.03131C7.03128 2.77896 7.03128 3.52662 7.03128 4.29693C8.99066 4.29693 10.95 4.29693 12.9688 4.29693C12.9688 3.54928 12.9688 2.80162 12.9688 2.03131C12.5276 2.02157 12.5276 2.02157 12.0865 2.01263C12.0309 2.01126 11.9753 2.00985 11.9197 2.00842C11.8912 2.00797 11.8627 2.00753 11.8333 2.00707C11.6756 2.00262 11.5465 1.98917 11.4063 1.91412C11.3588 1.81914 11.3605 1.75335 11.3576 1.64724C11.3563 1.6096 11.355 1.57196 11.3537 1.53318C11.3513 1.45394 11.3491 1.3747 11.347 1.29545C11.3457 1.25766 11.3443 1.21987 11.343 1.18093C11.342 1.14645 11.341 1.11197 11.34 1.07644C11.3268 0.964886 11.3008 0.881493 11.25 0.781307C11.1174 0.692873 11.0698 0.693007 10.914 0.691833C10.8692 0.691335 10.8243 0.690836 10.7781 0.690323C10.7297 0.690236 10.6812 0.690149 10.6313 0.690059C10.5567 0.689669 10.5567 0.689669 10.4805 0.689271C10.3752 0.688875 10.2699 0.688659 10.1646 0.688705C10.0298 0.688713 9.895 0.687646 9.76018 0.686301C9.63144 0.685223 9.50271 0.685269 9.37396 0.685176C9.32558 0.684615 9.27719 0.684054 9.22735 0.683475C9.18238 0.683716 9.13741 0.683956 9.09107 0.684204C9.05153 0.684092 9.01198 0.683981 8.97123 0.683866C8.83871 0.708476 8.79354 0.754922 8.71097 0.859432ZM3.89651 3.37652C3.695 3.62381 3.66708 3.8857 3.66688 4.19834C3.66675 4.2488 3.66663 4.29926 3.6665 4.35124C3.66656 4.40696 3.66662 4.46268 3.66668 4.5184C3.66661 4.57781 3.66652 4.63722 3.66641 4.69662C3.66618 4.85976 3.66618 5.02289 3.66623 5.18603C3.66623 5.36201 3.66602 5.538 3.66583 5.71398C3.66551 6.05873 3.6654 6.40347 3.66538 6.74822C3.66536 7.02844 3.66528 7.30866 3.66516 7.58888C3.66481 8.38336 3.66463 9.17783 3.66466 9.9723C3.66466 10.0151 3.66467 10.058 3.66467 10.1021C3.66467 10.145 3.66467 10.1879 3.66467 10.232C3.66469 10.9271 3.66431 11.6221 3.66376 12.3171C3.6632 13.0308 3.66293 13.7444 3.66297 14.458C3.66298 14.8587 3.66287 15.2593 3.66245 15.66C3.6621 16.0011 3.66201 16.3422 3.66228 16.6833C3.6624 16.8574 3.66241 17.0314 3.66207 17.2054C3.66176 17.3648 3.66182 17.5242 3.66216 17.6836C3.66222 17.7411 3.66214 17.7987 3.66193 17.8563C3.66032 18.3107 3.67 18.7076 3.98441 19.0626C4.1766 19.2152 4.35427 19.3016 4.6019 19.3023C4.64081 19.3025 4.67971 19.3027 4.7198 19.3029C4.76266 19.3029 4.80552 19.3029 4.84968 19.3029C4.89513 19.3031 4.94058 19.3033 4.9874 19.3035C5.11376 19.3039 5.24011 19.3042 5.36647 19.3043C5.50268 19.3046 5.63888 19.305 5.77509 19.3054C6.10417 19.3064 6.43326 19.307 6.76234 19.3075C6.8553 19.3076 6.94827 19.3078 7.04123 19.3079C7.61861 19.3089 8.19599 19.3098 8.77337 19.3103C8.90712 19.3104 9.04087 19.3105 9.17462 19.3106C9.22448 19.3107 9.22448 19.3107 9.27535 19.3107C9.81362 19.3112 10.3519 19.3125 10.8902 19.3141C11.4429 19.3158 11.9956 19.3167 12.5484 19.3169C12.8587 19.317 13.169 19.3175 13.4793 19.3188C13.7436 19.3199 14.0079 19.3203 14.2722 19.3199C14.407 19.3197 14.5418 19.3198 14.6766 19.3207C14.8229 19.3216 14.9693 19.3213 15.1157 19.3207C15.1579 19.3212 15.2002 19.3218 15.2437 19.3223C15.5245 19.3194 15.7436 19.2635 15.9766 19.1016C16.255 18.8094 16.3329 18.5045 16.3332 18.1065C16.3333 18.056 16.3334 18.0055 16.3336 17.9536C16.3335 17.8978 16.3334 17.8421 16.3334 17.7864C16.3335 17.727 16.3335 17.6676 16.3336 17.6082C16.3339 17.445 16.3339 17.2819 16.3338 17.1188C16.3338 16.9428 16.334 16.7668 16.3342 16.5908C16.3346 16.2461 16.3347 15.9013 16.3347 15.5566C16.3347 15.2764 16.3348 14.9961 16.3349 14.7159C16.3352 13.9214 16.3354 13.127 16.3354 12.3325C16.3354 12.2897 16.3354 12.2468 16.3354 12.2027C16.3354 12.1598 16.3354 12.1169 16.3354 12.0728C16.3354 11.3777 16.3357 10.6827 16.3363 9.98769C16.3369 9.27405 16.3371 8.56041 16.3371 7.84677C16.3371 7.44612 16.3372 7.04546 16.3376 6.6448C16.338 6.30369 16.338 5.96257 16.3378 5.62145C16.3377 5.44744 16.3377 5.27343 16.338 5.09942C16.3383 4.94002 16.3382 4.78064 16.3379 4.62124C16.3378 4.56368 16.3379 4.50611 16.3381 4.44854C16.3397 3.99412 16.3339 3.62869 16.0157 3.28131C15.7163 3.00389 15.3797 3.0019 14.9918 3.00405C14.9351 3.00414 14.9351 3.00414 14.8772 3.00422C14.757 3.00444 14.6368 3.00493 14.5166 3.00543C14.4349 3.00562 14.3532 3.0058 14.2714 3.00596C14.0716 3.00639 13.8717 3.00707 13.6719 3.00787C13.6713 3.05279 13.6708 3.09771 13.6702 3.144C13.6679 3.3113 13.6649 3.47859 13.6617 3.64588C13.6604 3.71816 13.6593 3.79045 13.6584 3.86274C13.6571 3.9669 13.655 4.07102 13.6528 4.17517C13.6526 4.20728 13.6523 4.23939 13.6521 4.27248C13.6472 4.46484 13.6212 4.59878 13.5157 4.76568C13.3314 4.93199 13.2341 4.96588 12.9882 4.96674C12.9618 4.96689 12.9355 4.96703 12.9083 4.96718C12.8195 4.96761 12.7306 4.96776 12.6418 4.96791C12.5783 4.96815 12.5148 4.96841 12.4513 4.96869C12.2784 4.96937 12.1055 4.96978 11.9326 4.9701C11.8246 4.9703 11.7167 4.97054 11.6087 4.97078C11.2709 4.97153 10.9332 4.97208 10.5954 4.97241C10.2054 4.97279 9.81534 4.97382 9.4253 4.9754C9.12394 4.97658 8.82259 4.97715 8.52123 4.97728C8.34119 4.97738 8.16115 4.97773 7.98112 4.97871C7.8117 4.97962 7.64229 4.97978 7.47287 4.97938C7.41073 4.97936 7.3486 4.97961 7.28646 4.98015C7.20151 4.98084 7.11662 4.98056 7.03167 4.98005C6.96042 4.98019 6.96042 4.98019 6.88773 4.98033C6.69947 4.95231 6.57712 4.8658 6.45267 4.72418C6.34837 4.55401 6.35871 4.37964 6.35486 4.18661C6.35405 4.15296 6.35323 4.11931 6.3524 4.08465C6.34984 3.97719 6.34754 3.86973 6.34525 3.76226C6.34356 3.6894 6.34185 3.61654 6.34013 3.54368C6.33595 3.36508 6.33199 3.18648 6.32816 3.00787C6.08982 3.00593 5.85148 3.00452 5.61314 3.00358C5.53218 3.00319 5.45122 3.00265 5.37026 3.00198C5.25341 3.00102 5.13657 3.00058 5.01971 3.00024C4.98393 2.99984 4.94815 2.99943 4.91129 2.99902C4.49912 2.99895 4.18267 3.05934 3.89651 3.37652Z" fill="black"/>
<path d="M10.4472 8.66563C11.2165 8.63984 11.8905 8.96049 12.4446 9.47328C12.8331 9.87186 13.1896 10.4605 13.2074 11.0309C13.206 11.0645 13.2046 11.0982 13.2032 11.1328C13.2317 11.1373 13.2601 11.1418 13.2895 11.1464C13.6616 11.2333 14.0209 11.5466 14.2222 11.8636C14.525 12.3944 14.6407 12.9181 14.4923 13.5156C14.2979 14.1416 13.9374 14.5408 13.3776 14.8569C13.157 14.9629 12.9566 15.0097 12.7122 15.0105C12.6373 15.011 12.6373 15.011 12.5608 15.0115C12.5061 15.0114 12.4513 15.0114 12.3966 15.0114C12.3385 15.0116 12.2803 15.0119 12.2221 15.0122C12.0647 15.0128 11.9072 15.013 11.7497 15.0131C11.6512 15.0131 11.5526 15.0133 11.454 15.0135C11.1095 15.0142 10.765 15.0146 10.4205 15.0145C10.1004 15.0144 9.7802 15.0153 9.46004 15.0165C9.18442 15.0175 8.9088 15.0179 8.63318 15.0179C8.46889 15.0179 8.30462 15.0181 8.14034 15.0189C7.98563 15.0197 7.83094 15.0197 7.67623 15.0191C7.6198 15.019 7.56337 15.0192 7.50694 15.0197C6.92259 15.0243 6.40201 14.8708 5.95699 14.4762C5.49718 13.9876 5.28829 13.4267 5.30056 12.7623C5.3442 12.2369 5.54825 11.7615 5.89855 11.3672C5.96654 11.3207 6.03581 11.276 6.10607 11.2329C6.34181 11.0681 6.42839 10.8968 6.53789 10.6394C6.7193 10.2653 7.07084 10.0061 7.45617 9.86574C7.66616 9.80331 7.8712 9.78198 8.08956 9.77251C8.30649 9.7643 8.30649 9.7643 8.48079 9.64693C8.50763 9.61359 8.53447 9.58026 8.56212 9.54591C8.98725 9.05344 9.62228 8.73863 10.2708 8.67692C10.3296 8.67326 10.3884 8.66948 10.4472 8.66563ZM9.03011 10.0533C8.8078 10.3118 8.8078 10.3118 8.71105 10.625C8.67268 10.6081 8.67268 10.6081 8.63354 10.5908C8.32365 10.4648 8.03299 10.4004 7.7058 10.5019C7.38795 10.6439 7.18775 10.8616 7.05578 11.1817C7.02246 11.2726 6.99403 11.3541 6.98131 11.4502C6.93803 11.5631 6.86038 11.5812 6.75304 11.6309C6.37757 11.8259 6.1971 12.1066 6.0548 12.5C5.94895 12.9374 6.03533 13.3385 6.25622 13.7245C6.47482 14.039 6.77846 14.2471 7.14855 14.336C7.25927 14.3462 7.36909 14.3463 7.48022 14.3454C7.5124 14.3455 7.54459 14.3456 7.57775 14.3457C7.68422 14.3458 7.79068 14.3454 7.89715 14.345C7.97263 14.3449 8.04812 14.3449 8.1236 14.345C8.32506 14.345 8.52652 14.3444 8.72798 14.3437C8.85251 14.3433 8.97705 14.3429 9.10159 14.3426C9.55123 14.3415 10.0009 14.3397 10.4505 14.3374C10.7107 14.3362 10.9709 14.3356 11.2312 14.3355C11.4497 14.3354 11.6682 14.334 11.8867 14.332C11.9708 14.3314 12.0548 14.3311 12.1388 14.3313C12.6323 14.3317 13.0292 14.3226 13.4158 13.9774C13.6652 13.7266 13.8046 13.4133 13.8295 13.0605C13.8239 12.6462 13.6885 12.3232 13.4108 12.0191C13.1491 11.7721 12.8507 11.7023 12.5001 11.6797C12.5019 11.6405 12.5037 11.6012 12.5056 11.5608C12.5249 10.965 12.3852 10.4941 11.997 10.0293C11.6214 9.62862 11.1107 9.40412 10.5665 9.36525C9.96339 9.37789 9.44094 9.61563 9.03011 10.0533Z" fill="black"/>
</g>
<defs>
<clipPath id="clip0_3_298">
<rect width="20" height="20" fill="white"/>
</clipPath>
</defs>
</svg>
